<?xml version="1.0" encoding="utf-8"?>
<!-- Generator: Adobe Illustrator 25.0.1, SVG Export Plug-In . SVG Version: 6.00 Build 0)  -->
<svg version="1.1" id="Layer_1" xmlns="http://www.w3.org/2000/svg" xmlns:xlink="http://www.w3.org/1999/xlink" x="0px" y="0px"
	 viewBox="0 0 435.1 220.5" style="enable-background:new 0 0 435.1 220.5;" xml:space="preserve">
<path d="M123.9,35.4c0,6-1.8,10.8-5.3,14.3c-3.6,3.6-8.7,5.3-15.5,5.3h-39c-6.8,0-12-1.8-15.5-5.3c-3.6-3.5-5.3-8.3-5.3-14.3
	c0-6,1.8-10.8,5.3-14.3c3.6-3.6,8.7-5.3,15.5-5.3h39c6.8,0,12,1.8,15.5,5.3C122.2,24.7,123.9,29.4,123.9,35.4z M43.8,59.3h79.7v14.2
	H93.7v19.9H73.5V73.5H43.8V59.3z M83.6,54.2c0-2.3,0.8-4.5,2.3-6.7c1.5-2.2,3.8-4.1,6.9-5.9c3-1.7,6.8-3.2,11.3-4.3
	c4.5-1.1,9.8-1.8,15.8-1.9c-6-0.1-11.3-0.7-15.8-1.8s-8.3-2.5-11.3-4.3c-3-1.7-5.3-3.7-6.9-5.9c-1.5-2.2-2.3-4.4-2.3-6.7
	c0,2.3-0.8,4.5-2.3,6.7c-1.5,2.2-3.8,4.2-6.9,5.9c-3,1.7-6.8,3.2-11.4,4.3c-4.5,1.1-9.8,1.7-15.8,1.8c6,0.1,11.3,0.8,15.8,1.9
	c4.5,1.1,8.3,2.6,11.4,4.3c3,1.7,5.3,3.7,6.9,5.9C82.8,49.7,83.6,51.9,83.6,54.2z"/>
<path d="M210.3,75.9c0,2.5-0.4,4.8-1.1,7c-0.7,2.1-1.8,4-3.3,5.6c-1.5,1.6-3.3,2.8-5.5,3.7c-2.2,0.9-4.7,1.3-7.6,1.3H150
	c-2.9,0-5.4-0.4-7.6-1.3c-2.2-0.9-4-2.1-5.5-3.7c-1.5-1.6-2.6-3.4-3.3-5.6c-0.7-2.1-1.1-4.5-1.1-7c0-2.5,0.4-4.8,1.1-7
	c0.7-2.1,1.8-4,3.3-5.6c1.5-1.6,3.3-2.8,5.5-3.7c2.2-0.9,4.7-1.3,7.6-1.3h42.8c2.9,0,5.4,0.4,7.6,1.3c2.2,0.9,4,2.1,5.5,3.7
	c1.5,1.6,2.6,3.4,3.3,5.6C210,71.1,210.3,73.4,210.3,75.9z M133,15.8h51.7V30h-32.5v10.7c3.5,0,6.7,0,9.8-0.1c3.1-0.1,6-0.2,8.8-0.3
	c2.8-0.2,5.6-0.4,8.2-0.6c2.7-0.2,5.4-0.5,8.1-0.8v16.1H133V15.8z M171.5,60.1c-0.1,2.2-0.5,4.2-1.3,6.1c-0.8,1.9-2.3,3.5-4.5,5
	c-2.2,1.4-5.2,2.6-9,3.4c-3.8,0.8-8.9,1.3-15.1,1.3c6.3,0.1,11.5,0.6,15.4,1.5c3.9,0.9,6.9,2.1,9.1,3.5c2.1,1.5,3.6,3.2,4.3,5.1
	c0.7,2,1.1,4.1,1.1,6.3c0-2.3,0.4-4.4,1.1-6.3c0.7-2,2.2-3.7,4.3-5.1c2.1-1.5,5.2-2.6,9.1-3.5c3.9-0.9,9-1.4,15.4-1.5
	c-6.2-0.1-11.2-0.5-15.1-1.3c-3.9-0.8-6.9-2-9-3.4c-2.1-1.4-3.6-3.1-4.4-5C171.9,64.4,171.5,62.3,171.5,60.1z M190.7,15.8h19.2v11.4
	h8.6v15.6h-8.6v12.9h-19.2V15.8z"/>
<path d="M299.6,77.3c0,5.1-1.5,9-4.4,11.9c-2.9,2.8-7.3,4.3-13.1,4.3h-42.8c-5.8,0-10.2-1.4-13.1-4.3c-2.9-2.8-4.4-6.8-4.4-11.9
	c0-5.1,1.5-9,4.4-11.9c2.9-2.8,7.3-4.3,13.1-4.3h42.8c5.8,0,10.2,1.4,13.1,4.3S299.6,72.2,299.6,77.3z M274.1,15.8v12.9h-32.5v2.1
	h32.5v10.1c-4.3,0.8-9,1.4-14.3,1.8c-5.2,0.4-11.3,0.6-18.3,0.6v2.3c3.5,0,6.7,0,9.8-0.1c3.1-0.1,6-0.2,8.8-0.5
	c2.8-0.2,5.6-0.5,8.2-0.8c2.7-0.3,5.4-0.8,8.1-1.3v15.6h-54.1V15.8H274.1z M260.7,62.9c-0.1,2.1-0.5,4.1-1.3,5.8
	c-0.8,1.7-2.3,3.2-4.5,4.5c-2.2,1.3-5.2,2.2-9,2.9c-3.8,0.7-8.9,1.1-15.1,1.1c6.3,0.1,11.5,0.5,15.4,1.2c3.9,0.7,6.9,1.8,9.1,3.1
	c2.1,1.3,3.6,2.9,4.3,4.7c0.7,1.8,1.1,3.9,1.1,6.2c0-2.3,0.4-4.3,1.1-6.2c0.7-1.8,2.2-3.4,4.3-4.7c2.1-1.3,5.2-2.3,9.1-3.1
	c3.9-0.7,9-1.1,15.4-1.2c-6.2-0.1-11.2-0.4-15.1-1.1c-3.9-0.7-6.9-1.7-9-2.9c-2.1-1.3-3.6-2.8-4.4-4.5C261.2,67,260.8,65,260.7,62.9
	z M279.9,15.8h19.2V29h8.6v15.6h-8.6v13.8h-19.2V15.8z"/>
<path d="M388.9,77.3c0,5.1-1.5,9-4.4,11.9c-2.9,2.8-7.3,4.3-13.1,4.3h-42.8c-5.8,0-10.2-1.4-13.1-4.3c-2.9-2.8-4.4-6.8-4.4-11.9
	c0-5.1,1.5-9,4.4-11.9c2.9-2.8,7.3-4.3,13.1-4.3h42.8c5.8,0,10.2,1.4,13.1,4.3S388.9,72.2,388.9,77.3z M363.4,15.8v12.9h-32.5v2.1
	h32.5v10.1c-4.3,0.8-9,1.4-14.3,1.8c-5.2,0.4-11.3,0.6-18.3,0.6v2.3c3.5,0,6.7,0,9.8-0.1c3.1-0.1,6-0.2,8.8-0.5
	c2.8-0.2,5.6-0.5,8.2-0.8c2.7-0.3,5.4-0.8,8.1-1.3v15.6h-54.1V15.8H363.4z M350,62.9c-0.1,2.1-0.5,4.1-1.3,5.8
	c-0.8,1.7-2.3,3.2-4.5,4.5c-2.2,1.3-5.2,2.2-9,2.9c-3.8,0.7-8.9,1.1-15.1,1.1c6.3,0.1,11.5,0.5,15.4,1.2c3.9,0.7,6.9,1.8,9.1,3.1
	c2.1,1.3,3.6,2.9,4.3,4.7c0.7,1.8,1.1,3.9,1.1,6.2c0-2.3,0.4-4.3,1.1-6.2c0.7-1.8,2.2-3.4,4.3-4.7c2.1-1.3,5.2-2.3,9.1-3.1
	c3.9-0.7,9-1.1,15.4-1.2c-6.2-0.1-11.2-0.4-15.1-1.1c-3.9-0.7-6.9-1.7-9-2.9c-2.1-1.3-3.6-2.8-4.4-4.5C350.5,67,350.1,65,350,62.9z
	 M369.2,15.8h19.2V29h8.6v15.6h-8.6v13.8h-19.2V15.8z"/>
<path d="M29.8,157.2h33.5v-17H29.8V126h52.7v45.5H49v18c7,0,13.5-0.2,19.5-0.6c6-0.4,11.8-1.1,17.3-2.2v17H29.8V157.2z M90.3,126
	h19.2v77.7H90.3V126z"/>
<path d="M117.7,142.8c0-2.5,0.3-4.9,0.8-7c0.5-2.2,1.6-4.1,3-5.6c1.5-1.6,3.6-2.8,6.2-3.7c2.7-0.9,6.2-1.3,10.6-1.3
	c4.3,0,7.8,0.4,10.5,1.3c2.7,0.9,4.8,2.1,6.3,3.7c1.5,1.6,2.5,3.5,3,5.6c0.5,2.2,0.8,4.5,0.8,7v6.2c0,2.5-0.3,4.9-0.8,7
	c-0.5,2.2-1.6,4.1-3,5.6c-1.5,1.6-3.6,2.8-6.3,3.7c-2.7,0.9-6.2,1.3-10.5,1.3c-4.4,0-7.9-0.4-10.6-1.3c-2.7-0.9-4.8-2.1-6.2-3.7
	c-1.5-1.6-2.5-3.5-3-5.6c-0.5-2.2-0.8-4.5-0.8-7V142.8z M179.6,203.7v-19.9h-60.5v-14.2h79.7v34.2H179.6z M138.3,129.8
	c-0.2,5.6-1.9,9.6-5.1,12.2c-3.2,2.5-7.6,3.9-13.1,4c5.5,0.1,9.9,1.4,13.1,3.9c3.2,2.5,4.9,6.5,5.1,12.1c0.1-5.6,1.8-9.6,5-12.1
	c3.2-2.5,7.6-3.8,13.1-3.9c-5.6-0.1-10-1.4-13.2-3.9C140.1,139.5,138.5,135.4,138.3,129.8z M161.3,126H178v11.8h4.1V126h16.7v40.8
	h-16.7v-13.3H178v13.3h-16.7V126z"/>
<path d="M208.4,157.1h31.9v13.8h-31.9V157.1z"/>
<path d="M269.1,126v32.4c2.3,0,5.2,0,8.5,0c3.4,0,7-0.1,10.9-0.2c3.9-0.1,7.8-0.2,11.9-0.4c4.1-0.2,8-0.3,11.7-0.5s7.1-0.4,10.1-0.7
	c3-0.3,5.5-0.6,7.3-1v17.9h-29.8v15.9h29.8v14.2h-79.7v-14.2h29.8v-15.9h-29.8V126H269.1z"/>
<path d="M339.2,126h34.9c5.2,0,9.9,0.9,14,2.8c4.2,1.8,7.7,4.5,10.6,7.9c2.9,3.4,5.1,7.5,6.6,12.3c1.5,4.8,2.3,10.1,2.3,16
	c0,5.9-0.8,11.2-2.3,16s-3.7,8.9-6.6,12.3c-2.9,3.4-6.4,6-10.6,7.9c-4.2,1.8-8.8,2.8-14,2.8h-34.9V126z M340.9,164.4
	c4.2,0,8.2,1,12,3c3.9,2,7.3,4.7,10.3,8.1c3,3.4,5.4,7.4,7.2,11.9c1.8,4.5,2.7,9.3,2.7,14.4c0-5.1,0.9-9.9,2.7-14.4
	c1.8-4.5,4.2-8.5,7.2-11.9c3-3.4,6.4-6.1,10.3-8.1c3.9-2,7.9-3,12-3c-4.2,0-8.2-1-12-3c-3.9-2-7.3-4.7-10.3-8.2
	c-3-3.4-5.4-7.4-7.2-11.9c-1.8-4.5-2.7-9.3-2.7-14.4c0,5.1-0.9,9.9-2.7,14.5c-1.8,4.6-4.2,8.6-7.2,12c-3,3.4-6.4,6.2-10.3,8.2
	C349.1,163.4,345.1,164.4,340.9,164.4z"/>
</svg>
